# xmcd CD database file
#
# Track frame offsets:
#	150
#	41339
#	68387
#	101198
#	129892
#	159210
#	185748
#	201635
#	225490
#	258178
#	289106
#
# Disc length: 4174 seconds
#
# Revision: 1
# Processed by: cddbd v1.5.2PL0 Copyright (c) Steve Scherf et al.
# Submitted via: FreeDB 13.2
#
DISCID=91104c0b
DTITLE=Burnt Ice - Live! At The Bullfrog Blues Club
DYEAR=1900
DGENRE=Electric  Blues
TTITLE0=Come To Papa  -  Jazzy Bit
TTITLE1=I'm Ready
TTITLE2=Sweet Jayne
TTITLE3=Oowee Baby
TTITLE4=So Good
TTITLE5=Kansas City Blues
TTITLE6=I Can't Help Myself
TTITLE7=You Upset Me
TTITLE8=The Thrill Is Gone
TTITLE9=T-Bone Shuffle
TTITLE10=Ain't Doing Too Bad
EXTD=Recorded Live At The BUllrfog Blues Club, South Parade Pier Southsea\n2
EXTD=002\n
EXTT0=Koko Taylor - Burnt Ice\n
EXTT1=McKinnley Morganfield
EXTT2=Andy Broad
EXTT3=Biddy Guy
EXTT4=Andy Broad
EXTT5=Leiber - Stoller
EXTT6=Matt Beckwith\n
EXTT7=King Taub
EXTT8=Benson Pettite
EXTT9=Aaron Walker
EXTT10=James Cortton
PLAYORDER=
